<svg xmlns="http://www.w3.org/2000/svg" viewBox="0 0 311 94.556">
  <defs>
    <style>
      .cls-1 {
        fill: #f29220;
      }

      .cls-2 {
        fill: #1e4490;
      }

      .cls-3 {
        fill: #fff;
      }

      .cls-4 {
        fill: #707070;
        font-size: 16px;
        font-family: HelveticaNeue, Helvetica Neue;
      }
    </style>
  </defs>
  <g id="Home_Logo" data-name="Home Logo" transform="translate(-149 -70)">
    <g id="Home_Logo-2" data-name="Home Logo" transform="translate(149 70)">
      <path id="Path_1" data-name="Path 1" class="cls-1" d="M137.62,96.72h0a27.553,27.553,0,0,0,0,55.074v.02h96.961v-7.358H138.537a20.2,20.2,0,0,1,0-40.4H164l4.953-7.358H137.62Z" transform="translate(-88.375 -76.99)"/>
      <path id="Path_2" data-name="Path 2" class="cls-2" d="M332.915,408.3a6.3,6.3,0,0,1,6.3-6.3H314a6.3,6.3,0,1,1,0,12.6h25.234A6.307,6.307,0,0,1,332.915,408.3Z" transform="translate(-249.998 -320.061)"/>
      <path id="Path_3" data-name="Path 3" class="cls-2" d="M456.715,408.3a6.3,6.3,0,0,1,6.3-6.3H437.8a6.3,6.3,0,0,1,0,12.6h25.234A6.307,6.307,0,0,1,456.715,408.3Z" transform="translate(-348.564 -320.061)"/>
      <path id="Path_4" data-name="Path 4" class="cls-2" d="M580.515,408.3a6.3,6.3,0,0,1,6.3-6.3H561.6a6.3,6.3,0,0,1,0,12.6h25.234A6.307,6.307,0,0,1,580.515,408.3Z" transform="translate(-447.13 -320.061)"/>
      <path id="Path_5" data-name="Path 5" class="cls-2" d="M57.683,88.237a6.3,6.3,0,0,1,6.3-6.3H47.247A34.651,34.651,0,0,1,16.673,30.982a6.429,6.429,0,1,1,.285-.53A34.642,34.642,0,0,1,47.247,12.637h6.726A6.319,6.319,0,0,1,53.994,0H45.678V.02A47,47,0,0,0,26.64,4.729a6.058,6.058,0,1,1-.306.143A47.311,47.311,0,0,0,0,47.268a48.975,48.975,0,0,0,.347,5.768c-.02-.2-.02-.408-.02-.611a6.267,6.267,0,1,1,.082,1.04,47.05,47.05,0,0,0,11.985,25.7,6.163,6.163,0,1,1,.163.183A47.329,47.329,0,0,0,37.484,93.537a6.3,6.3,0,1,1,1.427.163,5.957,5.957,0,0,1-1.04-.082,48.957,48.957,0,0,0,7.786.917v.02H64A6.337,6.337,0,0,1,57.683,88.237Z"/>
      <path id="Path_6" data-name="Path 6" class="cls-2" d="M809.2,401.82a6.3,6.3,0,0,1,0,12.6h26.151V401.8H809.2Z" transform="translate(-644.263 -319.902)"/>
      <path id="Path_7" data-name="Path 7" class="cls-2" d="M271.219,6.3a6.3,6.3,0,0,1-6.3,6.3h31.369L304.769,0H264.9A6.32,6.32,0,0,1,271.219,6.3Z" transform="translate(-210.906)"/>
      <path id="Path_8" data-name="Path 8" class="cls-2" d="M704.315,408.3a6.3,6.3,0,0,1,6.3-6.3H685.4a6.3,6.3,0,0,1,0,12.6h25.234A6.307,6.307,0,0,1,704.315,408.3Z" transform="translate(-545.696 -320.061)"/>
      <path id="Path_9" data-name="Path 9" class="cls-3" d="M129.1,23.363c.1-.061.224-.1.326-.163C129.3,23.261,129.2,23.322,129.1,23.363Z" transform="translate(-102.786 -18.471)"/>
      <path id="Path_10" data-name="Path 10" class="cls-3" d="M82.185,149.3c-.1.183-.2.367-.285.53C82,149.647,82.1,149.483,82.185,149.3Z" transform="translate(-65.207 -118.869)"/>
      <path id="Path_11" data-name="Path 11" class="cls-3" d="M1.761,260.628,1.7,260.2Z" transform="translate(-1.353 -207.164)"/>
      <path id="Path_12" data-name="Path 12" class="cls-3" d="M60.963,388.583c-.061-.061-.1-.122-.163-.184A1.319,1.319,0,0,0,60.963,388.583Z" transform="translate(-48.407 -309.233)"/>
      <path id="Path_13" data-name="Path 13" class="cls-3" d="M184.308,458.882c-.143-.02-.265-.061-.408-.082A2.881,2.881,0,0,0,184.308,458.882Z" transform="translate(-146.416 -365.284)"/>
      <circle id="Ellipse_6" data-name="Ellipse 6" class="cls-2" cx="4.056" cy="4.056" r="4.056" transform="translate(49.999 2.242)"/>
      <circle id="Ellipse_7" data-name="Ellipse 7" class="cls-2" cx="4.056" cy="4.056" r="4.056" transform="translate(25.213 6.4)"/>
      <circle id="Ellipse_8" data-name="Ellipse 8" class="cls-2" cx="4.056" cy="4.056" r="4.056" transform="translate(7.256 23.624)"/>
      <circle id="Ellipse_9" data-name="Ellipse 9" class="cls-2" cx="4.056" cy="4.056" r="4.056" transform="translate(2.568 48.389)"/>
      <circle id="Ellipse_10" data-name="Ellipse 10" class="cls-2" cx="4.056" cy="4.056" r="4.056" transform="translate(13.086 70.973)"/>
      <circle id="Ellipse_11" data-name="Ellipse 11" class="cls-2" cx="4.056" cy="4.056" r="4.056" transform="translate(34.875 83.325)"/>
      <circle id="Ellipse_12" data-name="Ellipse 12" class="cls-2" cx="4.056" cy="4.056" r="4.056" transform="translate(59.946 84.181)"/>
      <circle id="Ellipse_13" data-name="Ellipse 13" class="cls-2" cx="4.056" cy="4.056" r="4.056" transform="translate(85.18 84.181)"/>
      <circle id="Ellipse_14" data-name="Ellipse 14" class="cls-2" cx="4.056" cy="4.056" r="4.056" transform="translate(110.414 84.181)"/>
      <circle id="Ellipse_15" data-name="Ellipse 15" class="cls-2" cx="4.056" cy="4.056" r="4.056" transform="translate(135.647 84.181)"/>
      <circle id="Ellipse_16" data-name="Ellipse 16" class="cls-2" cx="4.056" cy="4.056" r="4.056" transform="translate(160.881 84.181)"/>
      <g id="Group_2" data-name="Group 2" transform="translate(44.19 33.249)">
        <g id="Group_1" data-name="Group 1">
          <path id="Path_14" data-name="Path 14" class="cls-2" d="M229.03,207.165l5.3,8.765h-4.382l-4.24-7.012H225.4l-4.219,7.012H216.8l5.3-8.765-5.3-8.765h4.382l4.219,7.012h.306l4.219-7.012h4.382Z" transform="translate(-216.8 -191.21)"/>
          <path id="Path_15" data-name="Path 15" class="cls-2" d="M314.58,163.874a2.473,2.473,0,0,1,0,3.547,2.508,2.508,0,0,1-3.547-3.547A2.473,2.473,0,0,1,314.58,163.874Zm-3.628,23.991V170.335h3.75v17.529Z" transform="translate(-291.242 -163.125)"/>
          <path id="Path_16" data-name="Path 16" class="cls-2" d="M362.035,209.672h3.75v1.243c0,3.4-1.529,5.014-5.014,5.014h-6.258c-3.485,0-5.014-1.59-5.014-5.014v-7.5c0-3.4,1.529-5.014,5.014-5.014h6.258c3.485,0,5.014,1.59,5.014,5.014v1.243h-3.75v-1.243c0-1-.408-1.508-1.243-1.508h-6.258c-.836,0-1.243.51-1.243,1.508v7.521c0,1,.408,1.508,1.243,1.508h6.258c.836,0,1.243-.51,1.243-1.508Z" transform="translate(-322.452 -191.21)"/>
          <path id="Path_17" data-name="Path 17" class="cls-2" d="M450.15,191.507H446.4V167.7h3.75v6.258h7.521c3.4,0,5.014,1.59,5.014,5.014v12.535h-3.75V178.972c0-1-.408-1.508-1.243-1.508h-7.521v14.044Z" transform="translate(-399.601 -166.767)"/>
          <path id="Path_18" data-name="Path 18" class="cls-2" d="M556.435,167.7h3.75v18.793c0,3.4-1.529,5.014-5.014,5.014h-6.258c-3.485,0-5.014-1.59-5.014-5.014v-7.521c0-3.4,1.529-5.014,5.014-5.014h7.521Zm-1.243,20.281c.836,0,1.243-.51,1.243-1.508v-9.009h-7.521c-.836,0-1.243.51-1.243,1.508v7.521c0,1,.408,1.508,1.243,1.508h6.278Z" transform="translate(-477.228 -166.767)"/>
          <path id="Path_19" data-name="Path 19" class="cls-2" d="M652.072,198.4c3.4,0,5.014,1.59,5.014,5.014v7.521c0,3.4-1.59,5.014-5.014,5.014h-6.258c-3.4,0-5.014-1.59-5.014-5.014a3.313,3.313,0,0,1,1.59-3.159,11,11,0,0,1,3.4-1.284l7.521-1.875v-1.2c0-1-.408-1.508-1.243-1.508h-6.258c-.836,0-1.243.51-1.243,1.508v1.243h-3.75v-1.243c0-3.4,1.59-5.014,5.014-5.014Zm1.243,9.152-7.521,1.875c-1.121.285-1.243.652-1.243,1.508,0,1,.408,1.508,1.243,1.508h6.257c.836,0,1.243-.51,1.243-1.508v-3.384Z" transform="translate(-554.377 -191.21)"/>
          <path id="Path_20" data-name="Path 20" class="cls-2" d="M750.995,215.95V203.414c0-1-.408-1.508-1.243-1.508h-6.258c-.836,0-1.243.51-1.243,1.508V215.95H738.5V203.414c0-3.4,1.59-5.014,5.014-5.014h6.258c3.4,0,5.014,1.59,5.014,5.014V215.95Z" transform="translate(-632.163 -191.21)"/>
          <path id="Path_21" data-name="Path 21" class="cls-2" d="M848.335,209.672h3.75v1.243c0,3.4-1.529,5.014-5.014,5.014h-6.258c-3.485,0-5.014-1.59-5.014-5.014v-7.5c0-3.4,1.529-5.014,5.014-5.014h6.258c3.485,0,5.014,1.59,5.014,5.014v1.243h-3.75v-1.243c0-1-.408-1.508-1.243-1.508h-6.258c-.836,0-1.243.51-1.243,1.508v7.521c0,1,.408,1.508,1.243,1.508h6.258c.836,0,1.243-.51,1.243-1.508Z" transform="translate(-709.631 -191.21)"/>
          <path id="Path_22" data-name="Path 22" class="cls-2" d="M945.135,198.4h3.75v12.535c0,3.4-1.59,5.014-5.014,5.014h-6.258c-3.4,0-5.014-1.59-5.014-5.014V198.4h3.75v12.535c0,1,.408,1.508,1.243,1.508h6.3c.836,0,1.243-.51,1.243-1.508Z" transform="translate(-786.7 -191.21)"/>
          <path id="Path_23" data-name="Path 23" class="cls-2" d="M1041.472,198.4c3.485,0,5.014,1.59,5.014,5.014v7.521c0,3.4-1.529,5.014-5.014,5.014h-6.258c-3.485,0-5.014-1.59-5.014-5.014v-7.521c0-3.4,1.529-5.014,5.014-5.014Zm1.264,5.014c0-1-.408-1.508-1.243-1.508h-6.257c-.836,0-1.243.51-1.243,1.508v7.521c0,1,.408,1.508,1.243,1.508h6.257c.836,0,1.243-.51,1.243-1.508Z" transform="translate(-864.407 -191.21)"/>
          <path id="Path_24" data-name="Path 24" class="cls-2" d="M1140.495,215.95V203.414c0-1-.408-1.508-1.244-1.508h-6.257c-.836,0-1.243.51-1.243,1.508V215.95H1128V203.414c0-3.4,1.59-5.014,5.014-5.014h6.257c3.4,0,5.014,1.59,5.014,5.014V215.95Z" transform="translate(-942.272 -191.21)"/>
          <path id="Path_25" data-name="Path 25" class="cls-2" d="M1237.915,209.672h3.75v1.243c0,3.4-1.529,5.014-5.014,5.014h-6.237c-3.485,0-5.014-1.59-5.014-5.014v-7.5c0-3.4,1.529-5.014,5.014-5.014h6.257c3.485,0,5.014,1.59,5.014,5.014v1.243h-3.75v-1.243c0-1-.408-1.508-1.243-1.508h-6.278c-.836,0-1.243.51-1.243,1.508v7.521c0,1,.408,1.508,1.243,1.508h6.257c.836,0,1.243-.51,1.243-1.508Z" transform="translate(-1019.819 -191.21)"/>
          <path id="Path_26" data-name="Path 26" class="cls-2" d="M1331.872,198.4c3.4,0,5.014,1.59,5.014,5.014v7.521c0,3.4-1.59,5.014-5.014,5.014h-6.258c-3.4,0-5.014-1.59-5.014-5.014a3.313,3.313,0,0,1,1.59-3.159,11,11,0,0,1,3.4-1.284l7.521-1.875v-1.2c0-1-.408-1.508-1.243-1.508h-6.258c-.836,0-1.243.51-1.243,1.508v1.243h-3.751v-1.243c0-3.4,1.59-5.014,5.014-5.014Zm1.264,9.152-7.521,1.875c-1.121.285-1.243.652-1.243,1.508,0,1,.408,1.508,1.243,1.508h6.258c.836,0,1.243-.51,1.243-1.508v-3.384Z" transform="translate(-1095.615 -191.21)"/>
          <path id="Path_27" data-name="Path 27" class="cls-2" d="M1421.95,222.207h-3.75V203.414c0-3.4,1.59-5.014,5.014-5.014h6.258c3.4,0,5.014,1.59,5.014,5.014v7.521c0,3.4-1.59,5.014-5.014,5.014h-7.521Zm1.264-20.3c-.836,0-1.243.51-1.243,1.508v9.009h7.521c.836,0,1.243-.51,1.243-1.508v-7.5c0-1-.408-1.508-1.243-1.508Z" transform="translate(-1173.321 -191.21)"/>
        </g>
      </g>
    </g>
    <text id="xichdancuoncap.com" class="cls-4" transform="translate(297 132)"><tspan x="4.292" y="15">xichdancuoncap.com</tspan></text>
  </g>
</svg>
